<svg xmlns="http://www.w3.org/2000/svg" xml:space="preserve" width="24" height="24" viewBox="0 0 24 24"><path d="M11.107 21.414c-1.02-.152-1.72-1.313-1.355-2.271.36-.905 1.308-1.4 1.74-2.272.341-.616.823-1.377.878-2.013-1.164.802-2.26 1.828-2.658 3.232-.146.297-.42.558-.684.753-.583.379-1.34.424-1.925.023-1.009-.556-1.215-2.097-.329-2.853.531-.565 1.31-.625 2.03-.657 1.359-.142 2.645-.762 3.675-1.648-.054.608.445 1.14 1.054 1.186.424.139-.665.947-.579 1.422-.392.98-.267 2.049.134 3 .302 1.136-.81 2.333-1.981 2.098m.62-.652c.655-.16 1-.946.717-1.539-.192-.424-.684-.742-1.16-.653-.733.001-1.268.935-.936 1.588.248.505.816.76 1.38.604M8.584 18.39c.559-.201.808-.884.673-1.43-.207-.542-.738-.937-1.325-.88-.495.049-.926.434-1.076.904a1.225 1.225 0 0 0 .496 1.32c.304.216.68.25 1.035.18zm4.673-.034c-.107-.985.086-1.99.654-2.816.932-1.276 2.212-2.246 3.3-3.382q.804-.782 1.605-1.566c.804.262 1.483.922 1.92 1.643.364.64.592 1.366.518 2.11.127 1.85-1.275 3.587-3.012 4.123-1.16.402-2.397.19-3.598.244h-1.357zM7.62 13.955V12.93c-1.082-.014-2.176.028-3.251-.02-.576-.077-.499-1.101.088-1.045 1.838-.02 3.68.046 5.514-.07.387-.264.322-.886-.139-1.006l-7.769-.038c-.574-.256-.227-1.166.354-1.02H7.62V8.543c-1.095-.016-2.207.034-3.292-.025-.376-.128-.522-.704-.16-.92.223-.255.632-.06.936-.121h4.818c.549-.177.218-.868-.246-.697H7.618l.022-4.245c2.678.004 5.359-.039 8.036-.006 1.917.073 3.82 1.4 4.182 3.35.362 1.505-.225 3.131-1.33 4.185-1.495 1.408-2.971 2.845-4.548 4.161-.373.341-1.062.083-1.07-.437.118-.88 1.033-1.36 1.49-2.068 1.137-1.396 2.4-2.735 3.238-4.34-.218-.848-1.456-1.148-2.095-1.756-.99-.645-1.947-1.382-2.954-1.98-.278-.15-.732.19-.46.446 1.602 1.153 3.287 2.19 4.881 3.353-.291.407-.573.857-.919 1.21-.904.225-1.585-.832-2.374-1.172-.77-.48-1.484-1.067-2.284-1.49v7.8c-1.181.629-2.466 1.122-3.814 1.19zm6.726-.399c.361-.414-.637-.788-.533-.118.015.183.452.361.533.118m1.14-6.756c-.69-.693-1.612-1.151-2.4-1.741-.293-.21-1.58-1.234-1.258-.374 1.052.799 2.15 1.557 3.316 2.183.115-.016.233-.021.342-.068" style="display:inline;fill:#fff;stroke:none;stroke-width:2.10142;stroke-dasharray:none"/></svg>